<svg width="24" height="24" viewBox="0 0 24 24" fill="none" xmlns="http://www.w3.org/2000/svg">
<path d="M12 0.0493774C5.37 0.0493774 1.75145e-06 5.41938 1.75145e-06 12.0494C-0.00135931 14.5685 0.790578 17.0241 2.26346 19.0678C3.73634 21.1115 5.81538 22.6395 8.2056 23.435C8.8056 23.5394 9.03 23.1794 9.03 22.8638C9.03 22.5794 9.0144 21.635 9.0144 20.6294C6 21.185 5.22 19.895 4.98 19.2194C4.8444 18.8738 4.26 17.8094 3.75 17.5238C3.33 17.2994 2.73 16.7438 3.7344 16.7294C4.68 16.7138 5.3544 17.5994 5.58 17.9594C6.66 19.7738 8.3856 19.2638 9.0744 18.9494C9.18 18.1694 9.4944 17.645 9.84 17.345C7.17 17.045 4.38 16.0094 4.38 11.4194C4.38 10.1138 4.8444 9.03498 5.61 8.19378C5.49 7.89378 5.07 6.66378 5.73 5.01378C5.73 5.01378 6.7344 4.69938 9.03 6.24498C10.0069 5.97385 11.0162 5.83739 12.03 5.83938C13.05 5.83938 14.07 5.97378 15.03 6.24378C17.3244 4.68378 18.33 5.01498 18.33 5.01498C18.99 6.66498 18.57 7.89498 18.45 8.19498C19.2144 9.03498 19.68 10.0994 19.68 11.4194C19.68 16.025 16.8756 17.045 14.2056 17.345C14.64 17.7194 15.0156 18.4394 15.0156 19.565C15.0156 21.1694 15 22.4594 15 22.865C15 23.1794 15.2256 23.5538 15.8256 23.4338C18.2076 22.6295 20.2775 21.0986 21.7439 19.0564C23.2103 17.0141 23.9993 14.5635 24 12.0494C24 5.41938 18.63 0.0493774 12 0.0493774Z" fill="#607B96"/>
</svg>
